<mxfile host="app.diagrams.net" agent="Mozilla/5.0 (Windows NT 10.0; Win64; x64) AppleWebKit/537.36 (KHTML, like Gecko) Chrome/141.0.0.0 Safari/537.36 Edg/141.0.0.0" version="28.2.8">
  <diagram id="R2lEEEUBdFMjLlhIrx00" name="Page-1">
    <mxGraphModel grid="1" page="1" gridSize="10" guides="1" tooltips="1" connect="1" arrows="1" fold="1" pageScale="1" pageWidth="6000" pageHeight="2000" math="0" shadow="0" extFonts="Permanent Marker^https://fonts.googleapis.com/css?family=Permanent+Marker">
      <root>
        <mxCell id="0" />
        <mxCell id="1" parent="0" />
        <mxCell id="25Im-zEu2diIsI6YDJeZ-88" style="edgeStyle=orthogonalEdgeStyle;rounded=0;orthogonalLoop=1;jettySize=auto;html=1;exitX=1;exitY=0.5;exitDx=0;exitDy=0;entryX=0.5;entryY=0;entryDx=0;entryDy=0;endArrow=none;endFill=0;" edge="1" parent="1" source="6X2EwsW6MGB6UTKuVCd1-3" target="25Im-zEu2diIsI6YDJeZ-63">
          <mxGeometry relative="1" as="geometry" />
        </mxCell>
        <mxCell id="6X2EwsW6MGB6UTKuVCd1-3" value="ÉtelRendelőRendszer" style="ellipse;whiteSpace=wrap;html=1;" vertex="1" parent="1">
          <mxGeometry x="770" y="20" width="140" height="80" as="geometry" />
        </mxCell>
        <mxCell id="6X2EwsW6MGB6UTKuVCd1-4" value="vásárló" style="ellipse;whiteSpace=wrap;html=1;" vertex="1" parent="1">
          <mxGeometry x="-210" y="330" width="120" height="80" as="geometry" />
        </mxCell>
        <mxCell id="6X2EwsW6MGB6UTKuVCd1-21" style="edgeStyle=orthogonalEdgeStyle;rounded=0;orthogonalLoop=1;jettySize=auto;html=1;exitX=1;exitY=0.5;exitDx=0;exitDy=0;entryX=0;entryY=0.5;entryDx=0;entryDy=0;endArrow=none;endFill=0;" edge="1" parent="1" source="6X2EwsW6MGB6UTKuVCd1-6" target="6X2EwsW6MGB6UTKuVCd1-4">
          <mxGeometry relative="1" as="geometry" />
        </mxCell>
        <mxCell id="6X2EwsW6MGB6UTKuVCd1-6" value="&lt;u&gt;vevo_id&lt;/u&gt;" style="rhombus;whiteSpace=wrap;html=1;" vertex="1" parent="1">
          <mxGeometry x="-330" y="330" width="80" height="80" as="geometry" />
        </mxCell>
        <mxCell id="6X2EwsW6MGB6UTKuVCd1-7" value="email" style="ellipse;whiteSpace=wrap;html=1;" vertex="1" parent="1">
          <mxGeometry x="-510" y="467.5" width="100" height="60" as="geometry" />
        </mxCell>
        <mxCell id="6X2EwsW6MGB6UTKuVCd1-8" value="" style="ellipse;whiteSpace=wrap;html=1;" vertex="1" parent="1">
          <mxGeometry x="-390" y="470" width="95" height="60" as="geometry" />
        </mxCell>
        <mxCell id="6X2EwsW6MGB6UTKuVCd1-49" style="edgeStyle=orthogonalEdgeStyle;rounded=0;orthogonalLoop=1;jettySize=auto;html=1;exitX=0.5;exitY=0;exitDx=0;exitDy=0;entryX=0;entryY=1;entryDx=0;entryDy=0;endArrow=none;endFill=0;" edge="1" parent="1" source="6X2EwsW6MGB6UTKuVCd1-9" target="6X2EwsW6MGB6UTKuVCd1-4">
          <mxGeometry relative="1" as="geometry">
            <Array as="points">
              <mxPoint x="-342" y="420" />
              <mxPoint x="-192" y="420" />
            </Array>
          </mxGeometry>
        </mxCell>
        <mxCell id="6X2EwsW6MGB6UTKuVCd1-9" value="telefonszám" style="ellipse;whiteSpace=wrap;html=1;" vertex="1" parent="1">
          <mxGeometry x="-382.5" y="475" width="80" height="50" as="geometry" />
        </mxCell>
        <mxCell id="6X2EwsW6MGB6UTKuVCd1-20" style="edgeStyle=orthogonalEdgeStyle;rounded=0;orthogonalLoop=1;jettySize=auto;html=1;exitX=0.5;exitY=0;exitDx=0;exitDy=0;entryX=0.5;entryY=1;entryDx=0;entryDy=0;endArrow=none;endFill=0;" edge="1" parent="1" source="6X2EwsW6MGB6UTKuVCd1-10" target="6X2EwsW6MGB6UTKuVCd1-4">
          <mxGeometry relative="1" as="geometry" />
        </mxCell>
        <mxCell id="6X2EwsW6MGB6UTKuVCd1-23" style="edgeStyle=orthogonalEdgeStyle;rounded=0;orthogonalLoop=1;jettySize=auto;html=1;exitX=0.5;exitY=1;exitDx=0;exitDy=0;entryX=0.5;entryY=0;entryDx=0;entryDy=0;endArrow=none;endFill=0;" edge="1" parent="1" source="6X2EwsW6MGB6UTKuVCd1-10" target="6X2EwsW6MGB6UTKuVCd1-12">
          <mxGeometry relative="1" as="geometry" />
        </mxCell>
        <mxCell id="6X2EwsW6MGB6UTKuVCd1-24" style="edgeStyle=orthogonalEdgeStyle;rounded=0;orthogonalLoop=1;jettySize=auto;html=1;exitX=0.5;exitY=1;exitDx=0;exitDy=0;entryX=0.5;entryY=0;entryDx=0;entryDy=0;endArrow=none;endFill=0;" edge="1" parent="1" source="6X2EwsW6MGB6UTKuVCd1-10" target="6X2EwsW6MGB6UTKuVCd1-13">
          <mxGeometry relative="1" as="geometry" />
        </mxCell>
        <mxCell id="6X2EwsW6MGB6UTKuVCd1-10" value="név" style="ellipse;whiteSpace=wrap;html=1;" vertex="1" parent="1">
          <mxGeometry x="-260" y="470" width="90" height="55" as="geometry" />
        </mxCell>
        <mxCell id="6X2EwsW6MGB6UTKuVCd1-12" value="vezetéknév" style="ellipse;whiteSpace=wrap;html=1;" vertex="1" parent="1">
          <mxGeometry x="-340" y="580" width="90" height="60" as="geometry" />
        </mxCell>
        <mxCell id="6X2EwsW6MGB6UTKuVCd1-13" value="keresztnév" style="ellipse;whiteSpace=wrap;html=1;" vertex="1" parent="1">
          <mxGeometry x="-210" y="580" width="90" height="60" as="geometry" />
        </mxCell>
        <mxCell id="6X2EwsW6MGB6UTKuVCd1-14" value="mentett_cimek" style="ellipse;whiteSpace=wrap;html=1;" vertex="1" parent="1">
          <mxGeometry x="-90" y="470" width="90" height="60" as="geometry" />
        </mxCell>
        <mxCell id="6X2EwsW6MGB6UTKuVCd1-15" value="mentett_cimek" style="ellipse;whiteSpace=wrap;html=1;" vertex="1" parent="1">
          <mxGeometry x="-85" y="475" width="80" height="50" as="geometry" />
        </mxCell>
        <mxCell id="6X2EwsW6MGB6UTKuVCd1-25" style="edgeStyle=orthogonalEdgeStyle;rounded=0;orthogonalLoop=1;jettySize=auto;html=1;exitX=0.5;exitY=0;exitDx=0;exitDy=0;entryX=0;entryY=1;entryDx=0;entryDy=0;endArrow=none;endFill=0;" edge="1" parent="1" source="6X2EwsW6MGB6UTKuVCd1-16" target="6X2EwsW6MGB6UTKuVCd1-14">
          <mxGeometry relative="1" as="geometry" />
        </mxCell>
        <mxCell id="6X2EwsW6MGB6UTKuVCd1-16" value="irsz" style="ellipse;whiteSpace=wrap;html=1;" vertex="1" parent="1">
          <mxGeometry x="-60" y="580" width="90" height="60" as="geometry" />
        </mxCell>
        <mxCell id="6X2EwsW6MGB6UTKuVCd1-26" style="edgeStyle=orthogonalEdgeStyle;rounded=0;orthogonalLoop=1;jettySize=auto;html=1;exitX=0.5;exitY=0;exitDx=0;exitDy=0;entryX=1;entryY=1;entryDx=0;entryDy=0;endArrow=none;endFill=0;" edge="1" parent="1" source="6X2EwsW6MGB6UTKuVCd1-17" target="6X2EwsW6MGB6UTKuVCd1-14">
          <mxGeometry relative="1" as="geometry" />
        </mxCell>
        <mxCell id="6X2EwsW6MGB6UTKuVCd1-17" value="város" style="ellipse;whiteSpace=wrap;html=1;" vertex="1" parent="1">
          <mxGeometry x="60" y="580" width="90" height="60" as="geometry" />
        </mxCell>
        <mxCell id="6X2EwsW6MGB6UTKuVCd1-18" value="utca" style="ellipse;whiteSpace=wrap;html=1;" vertex="1" parent="1">
          <mxGeometry x="190" y="580" width="90" height="60" as="geometry" />
        </mxCell>
        <mxCell id="6X2EwsW6MGB6UTKuVCd1-28" style="edgeStyle=orthogonalEdgeStyle;rounded=0;orthogonalLoop=1;jettySize=auto;html=1;exitX=0.5;exitY=0;exitDx=0;exitDy=0;entryX=1;entryY=0.5;entryDx=0;entryDy=0;endArrow=none;endFill=0;" edge="1" parent="1" source="6X2EwsW6MGB6UTKuVCd1-19" target="6X2EwsW6MGB6UTKuVCd1-14">
          <mxGeometry relative="1" as="geometry" />
        </mxCell>
        <mxCell id="6X2EwsW6MGB6UTKuVCd1-19" value="hsz" style="ellipse;whiteSpace=wrap;html=1;" vertex="1" parent="1">
          <mxGeometry x="320" y="580" width="90" height="60" as="geometry" />
        </mxCell>
        <mxCell id="6X2EwsW6MGB6UTKuVCd1-22" style="edgeStyle=orthogonalEdgeStyle;rounded=0;orthogonalLoop=1;jettySize=auto;html=1;exitX=0.5;exitY=0;exitDx=0;exitDy=0;entryX=0.605;entryY=0.973;entryDx=0;entryDy=0;entryPerimeter=0;endArrow=none;endFill=0;" edge="1" parent="1" source="6X2EwsW6MGB6UTKuVCd1-14" target="6X2EwsW6MGB6UTKuVCd1-4">
          <mxGeometry relative="1" as="geometry" />
        </mxCell>
        <mxCell id="6X2EwsW6MGB6UTKuVCd1-27" style="edgeStyle=orthogonalEdgeStyle;rounded=0;orthogonalLoop=1;jettySize=auto;html=1;exitX=0.5;exitY=0;exitDx=0;exitDy=0;entryX=1;entryY=0.667;entryDx=0;entryDy=0;entryPerimeter=0;endArrow=none;endFill=0;" edge="1" parent="1" source="6X2EwsW6MGB6UTKuVCd1-18" target="6X2EwsW6MGB6UTKuVCd1-14">
          <mxGeometry relative="1" as="geometry" />
        </mxCell>
        <mxCell id="6X2EwsW6MGB6UTKuVCd1-31" style="edgeStyle=orthogonalEdgeStyle;rounded=0;orthogonalLoop=1;jettySize=auto;html=1;exitX=0.5;exitY=0;exitDx=0;exitDy=0;endArrow=none;endFill=0;" edge="1" parent="1" source="6X2EwsW6MGB6UTKuVCd1-29">
          <mxGeometry relative="1" as="geometry">
            <mxPoint x="-465" y="530" as="targetPoint" />
          </mxGeometry>
        </mxCell>
        <mxCell id="6X2EwsW6MGB6UTKuVCd1-29" value="" style="rounded=0;whiteSpace=wrap;html=1;" vertex="1" parent="1">
          <mxGeometry x="-480" y="580" width="30" height="60" as="geometry" />
        </mxCell>
        <mxCell id="6X2EwsW6MGB6UTKuVCd1-32" style="edgeStyle=orthogonalEdgeStyle;rounded=0;orthogonalLoop=1;jettySize=auto;html=1;exitX=0.5;exitY=0;exitDx=0;exitDy=0;entryX=0;entryY=1;entryDx=0;entryDy=0;endArrow=none;endFill=0;" edge="1" parent="1" source="6X2EwsW6MGB6UTKuVCd1-30" target="6X2EwsW6MGB6UTKuVCd1-8">
          <mxGeometry relative="1" as="geometry" />
        </mxCell>
        <mxCell id="6X2EwsW6MGB6UTKuVCd1-30" value="" style="rounded=0;whiteSpace=wrap;html=1;" vertex="1" parent="1">
          <mxGeometry x="-390" y="580" width="30" height="60" as="geometry" />
        </mxCell>
        <mxCell id="6X2EwsW6MGB6UTKuVCd1-46" style="edgeStyle=orthogonalEdgeStyle;rounded=0;orthogonalLoop=1;jettySize=auto;html=1;exitX=1;exitY=0;exitDx=0;exitDy=0;entryX=0;entryY=0.5;entryDx=0;entryDy=0;endArrow=none;endFill=0;" edge="1" parent="1" target="6X2EwsW6MGB6UTKuVCd1-3">
          <mxGeometry relative="1" as="geometry">
            <Array as="points">
              <mxPoint x="-150" y="60" />
            </Array>
            <mxPoint x="-149.99882493033823" y="347.19786177765127" as="sourcePoint" />
            <mxPoint x="730.81" y="60" as="targetPoint" />
          </mxGeometry>
        </mxCell>
        <mxCell id="6X2EwsW6MGB6UTKuVCd1-33" value="VÁSÁRLÓ" style="ellipse;whiteSpace=wrap;html=1;" vertex="1" parent="1">
          <mxGeometry x="-205" y="337.5" width="110" height="65" as="geometry" />
        </mxCell>
        <mxCell id="6X2EwsW6MGB6UTKuVCd1-44" style="edgeStyle=orthogonalEdgeStyle;rounded=0;orthogonalLoop=1;jettySize=auto;html=1;exitX=0.5;exitY=0;exitDx=0;exitDy=0;entryX=0.5;entryY=1;entryDx=0;entryDy=0;endArrow=none;endFill=0;" edge="1" parent="1" source="6X2EwsW6MGB6UTKuVCd1-34" target="6X2EwsW6MGB6UTKuVCd1-12">
          <mxGeometry relative="1" as="geometry" />
        </mxCell>
        <mxCell id="6X2EwsW6MGB6UTKuVCd1-34" value="" style="rounded=0;whiteSpace=wrap;html=1;" vertex="1" parent="1">
          <mxGeometry x="-310" y="710" width="30" height="60" as="geometry" />
        </mxCell>
        <mxCell id="6X2EwsW6MGB6UTKuVCd1-45" style="edgeStyle=orthogonalEdgeStyle;rounded=0;orthogonalLoop=1;jettySize=auto;html=1;exitX=0.5;exitY=0;exitDx=0;exitDy=0;entryX=0.5;entryY=1;entryDx=0;entryDy=0;endArrow=none;endFill=0;" edge="1" parent="1" source="6X2EwsW6MGB6UTKuVCd1-35" target="6X2EwsW6MGB6UTKuVCd1-13">
          <mxGeometry relative="1" as="geometry" />
        </mxCell>
        <mxCell id="6X2EwsW6MGB6UTKuVCd1-35" value="" style="rounded=0;whiteSpace=wrap;html=1;" vertex="1" parent="1">
          <mxGeometry x="-180" y="710" width="30" height="60" as="geometry" />
        </mxCell>
        <mxCell id="6X2EwsW6MGB6UTKuVCd1-43" style="edgeStyle=orthogonalEdgeStyle;rounded=0;orthogonalLoop=1;jettySize=auto;html=1;exitX=0.5;exitY=0;exitDx=0;exitDy=0;entryX=0.5;entryY=1;entryDx=0;entryDy=0;endArrow=none;endFill=0;" edge="1" parent="1" source="6X2EwsW6MGB6UTKuVCd1-36" target="6X2EwsW6MGB6UTKuVCd1-16">
          <mxGeometry relative="1" as="geometry">
            <Array as="points">
              <mxPoint x="-20" y="640" />
            </Array>
          </mxGeometry>
        </mxCell>
        <mxCell id="6X2EwsW6MGB6UTKuVCd1-36" value="" style="rounded=0;whiteSpace=wrap;html=1;" vertex="1" parent="1">
          <mxGeometry x="-35" y="710" width="30" height="60" as="geometry" />
        </mxCell>
        <mxCell id="6X2EwsW6MGB6UTKuVCd1-42" style="edgeStyle=orthogonalEdgeStyle;rounded=0;orthogonalLoop=1;jettySize=auto;html=1;exitX=0.5;exitY=0;exitDx=0;exitDy=0;entryX=0.5;entryY=1;entryDx=0;entryDy=0;endArrow=none;endFill=0;" edge="1" parent="1" source="6X2EwsW6MGB6UTKuVCd1-37" target="6X2EwsW6MGB6UTKuVCd1-17">
          <mxGeometry relative="1" as="geometry" />
        </mxCell>
        <mxCell id="6X2EwsW6MGB6UTKuVCd1-37" value="" style="rounded=0;whiteSpace=wrap;html=1;" vertex="1" parent="1">
          <mxGeometry x="90" y="710" width="30" height="60" as="geometry" />
        </mxCell>
        <mxCell id="6X2EwsW6MGB6UTKuVCd1-40" style="edgeStyle=orthogonalEdgeStyle;rounded=0;orthogonalLoop=1;jettySize=auto;html=1;exitX=0.5;exitY=0;exitDx=0;exitDy=0;entryX=0.5;entryY=1;entryDx=0;entryDy=0;endArrow=none;endFill=0;" edge="1" parent="1" source="6X2EwsW6MGB6UTKuVCd1-38" target="6X2EwsW6MGB6UTKuVCd1-18">
          <mxGeometry relative="1" as="geometry" />
        </mxCell>
        <mxCell id="6X2EwsW6MGB6UTKuVCd1-38" value="" style="rounded=0;whiteSpace=wrap;html=1;" vertex="1" parent="1">
          <mxGeometry x="220" y="710" width="30" height="60" as="geometry" />
        </mxCell>
        <mxCell id="6X2EwsW6MGB6UTKuVCd1-41" style="edgeStyle=orthogonalEdgeStyle;rounded=0;orthogonalLoop=1;jettySize=auto;html=1;exitX=0.5;exitY=0;exitDx=0;exitDy=0;entryX=0.5;entryY=1;entryDx=0;entryDy=0;endArrow=none;endFill=0;" edge="1" parent="1" source="6X2EwsW6MGB6UTKuVCd1-39" target="6X2EwsW6MGB6UTKuVCd1-19">
          <mxGeometry relative="1" as="geometry" />
        </mxCell>
        <mxCell id="6X2EwsW6MGB6UTKuVCd1-39" value="" style="rounded=0;whiteSpace=wrap;html=1;" vertex="1" parent="1">
          <mxGeometry x="350" y="710" width="30" height="60" as="geometry" />
        </mxCell>
        <mxCell id="6X2EwsW6MGB6UTKuVCd1-86" style="edgeStyle=orthogonalEdgeStyle;rounded=0;orthogonalLoop=1;jettySize=auto;html=1;exitX=0.5;exitY=0;exitDx=0;exitDy=0;entryX=0;entryY=1;entryDx=0;entryDy=0;endArrow=none;endFill=0;" edge="1" parent="1" source="6X2EwsW6MGB6UTKuVCd1-47" target="6X2EwsW6MGB6UTKuVCd1-3">
          <mxGeometry relative="1" as="geometry" />
        </mxCell>
        <mxCell id="6X2EwsW6MGB6UTKuVCd1-47" value="" style="ellipse;whiteSpace=wrap;html=1;" vertex="1" parent="1">
          <mxGeometry x="760" y="330" width="120" height="80" as="geometry" />
        </mxCell>
        <mxCell id="6X2EwsW6MGB6UTKuVCd1-48" value="ÉTTEREM" style="ellipse;whiteSpace=wrap;html=1;" vertex="1" parent="1">
          <mxGeometry x="765" y="335" width="110" height="70" as="geometry" />
        </mxCell>
        <mxCell id="6X2EwsW6MGB6UTKuVCd1-50" style="edgeStyle=orthogonalEdgeStyle;rounded=0;orthogonalLoop=1;jettySize=auto;html=1;exitX=0.5;exitY=0;exitDx=0;exitDy=0;entryX=0.326;entryY=0.981;entryDx=0;entryDy=0;entryPerimeter=0;endArrow=none;endFill=0;" edge="1" parent="1" source="6X2EwsW6MGB6UTKuVCd1-7" target="6X2EwsW6MGB6UTKuVCd1-4">
          <mxGeometry relative="1" as="geometry">
            <Array as="points">
              <mxPoint x="-460" y="430" />
              <mxPoint x="-171" y="430" />
            </Array>
          </mxGeometry>
        </mxCell>
        <mxCell id="6X2EwsW6MGB6UTKuVCd1-81" style="edgeStyle=orthogonalEdgeStyle;rounded=0;orthogonalLoop=1;jettySize=auto;html=1;exitX=1;exitY=0.5;exitDx=0;exitDy=0;entryX=0;entryY=0.5;entryDx=0;entryDy=0;endArrow=none;endFill=0;" edge="1" parent="1" source="6X2EwsW6MGB6UTKuVCd1-51" target="6X2EwsW6MGB6UTKuVCd1-47">
          <mxGeometry relative="1" as="geometry" />
        </mxCell>
        <mxCell id="6X2EwsW6MGB6UTKuVCd1-51" value="&lt;u&gt;etterem_id&lt;/u&gt;" style="rhombus;whiteSpace=wrap;html=1;" vertex="1" parent="1">
          <mxGeometry x="640" y="330" width="80" height="80" as="geometry" />
        </mxCell>
        <mxCell id="6X2EwsW6MGB6UTKuVCd1-80" style="edgeStyle=orthogonalEdgeStyle;rounded=0;orthogonalLoop=1;jettySize=auto;html=1;exitX=0.5;exitY=0;exitDx=0;exitDy=0;entryX=0;entryY=1;entryDx=0;entryDy=0;endArrow=none;endFill=0;" edge="1" parent="1" source="6X2EwsW6MGB6UTKuVCd1-53" target="6X2EwsW6MGB6UTKuVCd1-47">
          <mxGeometry relative="1" as="geometry" />
        </mxCell>
        <mxCell id="6X2EwsW6MGB6UTKuVCd1-53" value="név" style="ellipse;whiteSpace=wrap;html=1;" vertex="1" parent="1">
          <mxGeometry x="675" y="470" width="90" height="60" as="geometry" />
        </mxCell>
        <mxCell id="6X2EwsW6MGB6UTKuVCd1-54" value="" style="ellipse;whiteSpace=wrap;html=1;" vertex="1" parent="1">
          <mxGeometry x="790" y="470" width="90" height="60" as="geometry" />
        </mxCell>
        <mxCell id="6X2EwsW6MGB6UTKuVCd1-55" value="kategória" style="ellipse;whiteSpace=wrap;html=1;" vertex="1" parent="1">
          <mxGeometry x="795" y="475" width="80" height="50" as="geometry" />
        </mxCell>
        <mxCell id="6X2EwsW6MGB6UTKuVCd1-57" value="cim" style="ellipse;whiteSpace=wrap;html=1;" vertex="1" parent="1">
          <mxGeometry x="900" y="470" width="90" height="60" as="geometry" />
        </mxCell>
        <mxCell id="6X2EwsW6MGB6UTKuVCd1-73" style="edgeStyle=orthogonalEdgeStyle;rounded=0;orthogonalLoop=1;jettySize=auto;html=1;exitX=0.5;exitY=0;exitDx=0;exitDy=0;entryX=0.5;entryY=1;entryDx=0;entryDy=0;endArrow=none;endFill=0;" edge="1" parent="1" source="6X2EwsW6MGB6UTKuVCd1-58" target="6X2EwsW6MGB6UTKuVCd1-57">
          <mxGeometry relative="1" as="geometry" />
        </mxCell>
        <mxCell id="6X2EwsW6MGB6UTKuVCd1-58" value="irsz" style="ellipse;whiteSpace=wrap;html=1;" vertex="1" parent="1">
          <mxGeometry x="850" y="580" width="90" height="60" as="geometry" />
        </mxCell>
        <mxCell id="6X2EwsW6MGB6UTKuVCd1-59" value="város" style="ellipse;whiteSpace=wrap;html=1;" vertex="1" parent="1">
          <mxGeometry x="960" y="580" width="90" height="60" as="geometry" />
        </mxCell>
        <mxCell id="6X2EwsW6MGB6UTKuVCd1-60" value="utca" style="ellipse;whiteSpace=wrap;html=1;" vertex="1" parent="1">
          <mxGeometry x="1080" y="580" width="90" height="60" as="geometry" />
        </mxCell>
        <mxCell id="6X2EwsW6MGB6UTKuVCd1-76" style="edgeStyle=orthogonalEdgeStyle;rounded=0;orthogonalLoop=1;jettySize=auto;html=1;exitX=0.5;exitY=0;exitDx=0;exitDy=0;entryX=1;entryY=0.5;entryDx=0;entryDy=0;endArrow=none;endFill=0;" edge="1" parent="1" source="6X2EwsW6MGB6UTKuVCd1-61" target="6X2EwsW6MGB6UTKuVCd1-57">
          <mxGeometry relative="1" as="geometry" />
        </mxCell>
        <mxCell id="6X2EwsW6MGB6UTKuVCd1-61" value="hsz" style="ellipse;whiteSpace=wrap;html=1;" vertex="1" parent="1">
          <mxGeometry x="1190" y="580" width="90" height="60" as="geometry" />
        </mxCell>
        <mxCell id="6X2EwsW6MGB6UTKuVCd1-77" style="edgeStyle=orthogonalEdgeStyle;rounded=0;orthogonalLoop=1;jettySize=auto;html=1;exitX=0.5;exitY=0;exitDx=0;exitDy=0;entryX=1;entryY=0.5;entryDx=0;entryDy=0;endArrow=none;endFill=0;" edge="1" parent="1" source="6X2EwsW6MGB6UTKuVCd1-62" target="6X2EwsW6MGB6UTKuVCd1-47">
          <mxGeometry relative="1" as="geometry" />
        </mxCell>
        <mxCell id="6X2EwsW6MGB6UTKuVCd1-62" value="nyitvatartás" style="ellipse;whiteSpace=wrap;html=1;" vertex="1" parent="1">
          <mxGeometry x="1290" y="475" width="90" height="60" as="geometry" />
        </mxCell>
        <mxCell id="6X2EwsW6MGB6UTKuVCd1-64" style="edgeStyle=orthogonalEdgeStyle;rounded=0;orthogonalLoop=1;jettySize=auto;html=1;exitX=0.5;exitY=0;exitDx=0;exitDy=0;entryX=0.5;entryY=1;entryDx=0;entryDy=0;endArrow=none;endFill=0;" edge="1" parent="1" source="6X2EwsW6MGB6UTKuVCd1-63" target="6X2EwsW6MGB6UTKuVCd1-62">
          <mxGeometry relative="1" as="geometry" />
        </mxCell>
        <mxCell id="6X2EwsW6MGB6UTKuVCd1-63" value="" style="rounded=0;whiteSpace=wrap;html=1;" vertex="1" parent="1">
          <mxGeometry x="1320" y="580" width="30" height="60" as="geometry" />
        </mxCell>
        <mxCell id="6X2EwsW6MGB6UTKuVCd1-82" style="edgeStyle=orthogonalEdgeStyle;rounded=0;orthogonalLoop=1;jettySize=auto;html=1;exitX=0.5;exitY=0;exitDx=0;exitDy=0;entryX=0.5;entryY=1;entryDx=0;entryDy=0;endArrow=none;endFill=0;" edge="1" parent="1" source="6X2EwsW6MGB6UTKuVCd1-65" target="6X2EwsW6MGB6UTKuVCd1-61">
          <mxGeometry relative="1" as="geometry" />
        </mxCell>
        <mxCell id="6X2EwsW6MGB6UTKuVCd1-65" value="" style="rounded=0;whiteSpace=wrap;html=1;" vertex="1" parent="1">
          <mxGeometry x="1220" y="710" width="30" height="60" as="geometry" />
        </mxCell>
        <mxCell id="6X2EwsW6MGB6UTKuVCd1-83" style="edgeStyle=orthogonalEdgeStyle;rounded=0;orthogonalLoop=1;jettySize=auto;html=1;exitX=0.5;exitY=0;exitDx=0;exitDy=0;endArrow=none;endFill=0;" edge="1" parent="1" source="6X2EwsW6MGB6UTKuVCd1-66" target="6X2EwsW6MGB6UTKuVCd1-60">
          <mxGeometry relative="1" as="geometry" />
        </mxCell>
        <mxCell id="6X2EwsW6MGB6UTKuVCd1-66" value="" style="rounded=0;whiteSpace=wrap;html=1;" vertex="1" parent="1">
          <mxGeometry x="1110" y="710" width="30" height="60" as="geometry" />
        </mxCell>
        <mxCell id="6X2EwsW6MGB6UTKuVCd1-84" style="edgeStyle=orthogonalEdgeStyle;rounded=0;orthogonalLoop=1;jettySize=auto;html=1;exitX=0.5;exitY=0;exitDx=0;exitDy=0;endArrow=none;endFill=0;" edge="1" parent="1" source="6X2EwsW6MGB6UTKuVCd1-67" target="6X2EwsW6MGB6UTKuVCd1-59">
          <mxGeometry relative="1" as="geometry" />
        </mxCell>
        <mxCell id="6X2EwsW6MGB6UTKuVCd1-67" value="" style="rounded=0;whiteSpace=wrap;html=1;" vertex="1" parent="1">
          <mxGeometry x="990" y="710" width="30" height="60" as="geometry" />
        </mxCell>
        <mxCell id="6X2EwsW6MGB6UTKuVCd1-85" style="edgeStyle=orthogonalEdgeStyle;rounded=0;orthogonalLoop=1;jettySize=auto;html=1;exitX=0.5;exitY=0;exitDx=0;exitDy=0;endArrow=none;endFill=0;" edge="1" parent="1" source="6X2EwsW6MGB6UTKuVCd1-68" target="6X2EwsW6MGB6UTKuVCd1-58">
          <mxGeometry relative="1" as="geometry" />
        </mxCell>
        <mxCell id="6X2EwsW6MGB6UTKuVCd1-68" value="" style="rounded=0;whiteSpace=wrap;html=1;" vertex="1" parent="1">
          <mxGeometry x="890" y="710" width="30" height="60" as="geometry" />
        </mxCell>
        <mxCell id="6X2EwsW6MGB6UTKuVCd1-72" style="edgeStyle=orthogonalEdgeStyle;rounded=0;orthogonalLoop=1;jettySize=auto;html=1;exitX=0.5;exitY=0;exitDx=0;exitDy=0;entryX=0.5;entryY=1;entryDx=0;entryDy=0;endArrow=none;endFill=0;" edge="1" parent="1" source="6X2EwsW6MGB6UTKuVCd1-69" target="6X2EwsW6MGB6UTKuVCd1-54">
          <mxGeometry relative="1" as="geometry" />
        </mxCell>
        <mxCell id="6X2EwsW6MGB6UTKuVCd1-69" value="" style="rounded=0;whiteSpace=wrap;html=1;" vertex="1" parent="1">
          <mxGeometry x="790" y="580" width="30" height="60" as="geometry" />
        </mxCell>
        <mxCell id="6X2EwsW6MGB6UTKuVCd1-71" style="edgeStyle=orthogonalEdgeStyle;rounded=0;orthogonalLoop=1;jettySize=auto;html=1;exitX=0.5;exitY=0;exitDx=0;exitDy=0;entryX=0.5;entryY=1;entryDx=0;entryDy=0;endArrow=none;endFill=0;" edge="1" parent="1" source="6X2EwsW6MGB6UTKuVCd1-70" target="6X2EwsW6MGB6UTKuVCd1-53">
          <mxGeometry relative="1" as="geometry" />
        </mxCell>
        <mxCell id="6X2EwsW6MGB6UTKuVCd1-70" value="" style="rounded=0;whiteSpace=wrap;html=1;" vertex="1" parent="1">
          <mxGeometry x="705" y="580" width="30" height="60" as="geometry" />
        </mxCell>
        <mxCell id="6X2EwsW6MGB6UTKuVCd1-74" style="edgeStyle=orthogonalEdgeStyle;rounded=0;orthogonalLoop=1;jettySize=auto;html=1;exitX=0.5;exitY=0;exitDx=0;exitDy=0;entryX=0.707;entryY=0.943;entryDx=0;entryDy=0;entryPerimeter=0;endArrow=none;endFill=0;" edge="1" parent="1" source="6X2EwsW6MGB6UTKuVCd1-59" target="6X2EwsW6MGB6UTKuVCd1-57">
          <mxGeometry relative="1" as="geometry" />
        </mxCell>
        <mxCell id="6X2EwsW6MGB6UTKuVCd1-75" style="edgeStyle=orthogonalEdgeStyle;rounded=0;orthogonalLoop=1;jettySize=auto;html=1;exitX=0.5;exitY=0;exitDx=0;exitDy=0;entryX=0.983;entryY=0.623;entryDx=0;entryDy=0;entryPerimeter=0;endArrow=none;endFill=0;" edge="1" parent="1" source="6X2EwsW6MGB6UTKuVCd1-60" target="6X2EwsW6MGB6UTKuVCd1-57">
          <mxGeometry relative="1" as="geometry">
            <Array as="points">
              <mxPoint x="1125" y="530" />
              <mxPoint x="991" y="530" />
              <mxPoint x="991" y="507" />
            </Array>
          </mxGeometry>
        </mxCell>
        <mxCell id="6X2EwsW6MGB6UTKuVCd1-78" style="edgeStyle=orthogonalEdgeStyle;rounded=0;orthogonalLoop=1;jettySize=auto;html=1;exitX=0.5;exitY=0;exitDx=0;exitDy=0;entryX=0.902;entryY=0.741;entryDx=0;entryDy=0;entryPerimeter=0;endArrow=none;endFill=0;" edge="1" parent="1" source="6X2EwsW6MGB6UTKuVCd1-57" target="6X2EwsW6MGB6UTKuVCd1-47">
          <mxGeometry relative="1" as="geometry" />
        </mxCell>
        <mxCell id="6X2EwsW6MGB6UTKuVCd1-79" style="edgeStyle=orthogonalEdgeStyle;rounded=0;orthogonalLoop=1;jettySize=auto;html=1;exitX=0.5;exitY=0;exitDx=0;exitDy=0;entryX=0.621;entryY=0.974;entryDx=0;entryDy=0;entryPerimeter=0;endArrow=none;endFill=0;" edge="1" parent="1" source="6X2EwsW6MGB6UTKuVCd1-54" target="6X2EwsW6MGB6UTKuVCd1-47">
          <mxGeometry relative="1" as="geometry" />
        </mxCell>
        <mxCell id="25Im-zEu2diIsI6YDJeZ-24" style="edgeStyle=orthogonalEdgeStyle;rounded=0;orthogonalLoop=1;jettySize=auto;html=1;exitX=0.5;exitY=0;exitDx=0;exitDy=0;entryX=0.5;entryY=1;entryDx=0;entryDy=0;endArrow=none;endFill=0;" edge="1" parent="1" source="25Im-zEu2diIsI6YDJeZ-1" target="6X2EwsW6MGB6UTKuVCd1-3">
          <mxGeometry relative="1" as="geometry" />
        </mxCell>
        <mxCell id="25Im-zEu2diIsI6YDJeZ-93" style="edgeStyle=orthogonalEdgeStyle;rounded=0;orthogonalLoop=1;jettySize=auto;html=1;exitX=1;exitY=0.5;exitDx=0;exitDy=0;entryX=1;entryY=0.5;entryDx=0;entryDy=0;endArrow=none;endFill=0;" edge="1" parent="1" source="25Im-zEu2diIsI6YDJeZ-1" target="25Im-zEu2diIsI6YDJeZ-92">
          <mxGeometry relative="1" as="geometry">
            <Array as="points">
              <mxPoint x="1610" y="360" />
              <mxPoint x="1370" y="360" />
            </Array>
          </mxGeometry>
        </mxCell>
        <mxCell id="25Im-zEu2diIsI6YDJeZ-1" value="" style="ellipse;whiteSpace=wrap;html=1;" vertex="1" parent="1">
          <mxGeometry x="1490" y="330" width="120" height="80" as="geometry" />
        </mxCell>
        <mxCell id="25Im-zEu2diIsI6YDJeZ-2" value="ÉTEL" style="ellipse;whiteSpace=wrap;html=1;" vertex="1" parent="1">
          <mxGeometry x="1495" y="335" width="110" height="65" as="geometry" />
        </mxCell>
        <mxCell id="25Im-zEu2diIsI6YDJeZ-19" style="edgeStyle=orthogonalEdgeStyle;rounded=0;orthogonalLoop=1;jettySize=auto;html=1;exitX=0;exitY=0.5;exitDx=0;exitDy=0;entryX=1;entryY=0;entryDx=0;entryDy=0;endArrow=none;endFill=0;" edge="1" parent="1" source="25Im-zEu2diIsI6YDJeZ-3" target="25Im-zEu2diIsI6YDJeZ-1">
          <mxGeometry relative="1" as="geometry">
            <Array as="points">
              <mxPoint x="1890" y="342" />
            </Array>
          </mxGeometry>
        </mxCell>
        <mxCell id="25Im-zEu2diIsI6YDJeZ-3" value="&lt;u&gt;etel_id&lt;/u&gt;" style="rhombus;whiteSpace=wrap;html=1;" vertex="1" parent="1">
          <mxGeometry x="1890" y="330" width="80" height="80" as="geometry" />
        </mxCell>
        <mxCell id="25Im-zEu2diIsI6YDJeZ-4" value="" style="ellipse;whiteSpace=wrap;html=1;" vertex="1" parent="1">
          <mxGeometry x="1430" y="475" width="90" height="60" as="geometry" />
        </mxCell>
        <mxCell id="25Im-zEu2diIsI6YDJeZ-5" value="allergének" style="ellipse;whiteSpace=wrap;html=1;" vertex="1" parent="1">
          <mxGeometry x="1435" y="477.5" width="80" height="55" as="geometry" />
        </mxCell>
        <mxCell id="25Im-zEu2diIsI6YDJeZ-21" style="edgeStyle=orthogonalEdgeStyle;rounded=0;orthogonalLoop=1;jettySize=auto;html=1;exitX=0.5;exitY=0;exitDx=0;exitDy=0;entryX=0;entryY=1;entryDx=0;entryDy=0;endArrow=none;endFill=0;" edge="1" parent="1" source="25Im-zEu2diIsI6YDJeZ-7" target="25Im-zEu2diIsI6YDJeZ-1">
          <mxGeometry relative="1" as="geometry" />
        </mxCell>
        <mxCell id="25Im-zEu2diIsI6YDJeZ-7" value="leirás" style="ellipse;whiteSpace=wrap;html=1;" vertex="1" parent="1">
          <mxGeometry x="1560" y="475" width="90" height="60" as="geometry" />
        </mxCell>
        <mxCell id="25Im-zEu2diIsI6YDJeZ-22" style="edgeStyle=orthogonalEdgeStyle;rounded=0;orthogonalLoop=1;jettySize=auto;html=1;exitX=0.5;exitY=0;exitDx=0;exitDy=0;entryX=1;entryY=1;entryDx=0;entryDy=0;endArrow=none;endFill=0;" edge="1" parent="1" source="25Im-zEu2diIsI6YDJeZ-8" target="25Im-zEu2diIsI6YDJeZ-1">
          <mxGeometry relative="1" as="geometry">
            <Array as="points">
              <mxPoint x="1725" y="430" />
              <mxPoint x="1592" y="430" />
            </Array>
          </mxGeometry>
        </mxCell>
        <mxCell id="25Im-zEu2diIsI6YDJeZ-8" value="ár" style="ellipse;whiteSpace=wrap;html=1;" vertex="1" parent="1">
          <mxGeometry x="1680" y="472.5" width="90" height="60" as="geometry" />
        </mxCell>
        <mxCell id="25Im-zEu2diIsI6YDJeZ-23" style="edgeStyle=orthogonalEdgeStyle;rounded=0;orthogonalLoop=1;jettySize=auto;html=1;exitX=0.5;exitY=0;exitDx=0;exitDy=0;entryX=1;entryY=0.5;entryDx=0;entryDy=0;endArrow=none;endFill=0;" edge="1" parent="1" source="25Im-zEu2diIsI6YDJeZ-10" target="25Im-zEu2diIsI6YDJeZ-1">
          <mxGeometry relative="1" as="geometry">
            <Array as="points">
              <mxPoint x="1845" y="400" />
              <mxPoint x="1610" y="400" />
            </Array>
          </mxGeometry>
        </mxCell>
        <mxCell id="25Im-zEu2diIsI6YDJeZ-10" value="név" style="ellipse;whiteSpace=wrap;html=1;" vertex="1" parent="1">
          <mxGeometry x="1800" y="472.5" width="90" height="60" as="geometry" />
        </mxCell>
        <mxCell id="25Im-zEu2diIsI6YDJeZ-15" style="edgeStyle=orthogonalEdgeStyle;rounded=0;orthogonalLoop=1;jettySize=auto;html=1;exitX=0.5;exitY=0;exitDx=0;exitDy=0;entryX=0.5;entryY=1;entryDx=0;entryDy=0;endArrow=none;endFill=0;" edge="1" parent="1" source="25Im-zEu2diIsI6YDJeZ-11" target="25Im-zEu2diIsI6YDJeZ-4">
          <mxGeometry relative="1" as="geometry" />
        </mxCell>
        <mxCell id="25Im-zEu2diIsI6YDJeZ-11" value="" style="rounded=0;whiteSpace=wrap;html=1;" vertex="1" parent="1">
          <mxGeometry x="1450" y="580" width="30" height="60" as="geometry" />
        </mxCell>
        <mxCell id="25Im-zEu2diIsI6YDJeZ-16" style="edgeStyle=orthogonalEdgeStyle;rounded=0;orthogonalLoop=1;jettySize=auto;html=1;exitX=0.5;exitY=0;exitDx=0;exitDy=0;endArrow=none;endFill=0;" edge="1" parent="1" source="25Im-zEu2diIsI6YDJeZ-12">
          <mxGeometry relative="1" as="geometry">
            <mxPoint x="1606" y="540" as="targetPoint" />
          </mxGeometry>
        </mxCell>
        <mxCell id="25Im-zEu2diIsI6YDJeZ-12" value="" style="rounded=0;whiteSpace=wrap;html=1;" vertex="1" parent="1">
          <mxGeometry x="1590" y="580" width="30" height="60" as="geometry" />
        </mxCell>
        <mxCell id="25Im-zEu2diIsI6YDJeZ-17" style="edgeStyle=orthogonalEdgeStyle;rounded=0;orthogonalLoop=1;jettySize=auto;html=1;exitX=0.5;exitY=0;exitDx=0;exitDy=0;entryX=0.5;entryY=1;entryDx=0;entryDy=0;endArrow=none;endFill=0;" edge="1" parent="1" source="25Im-zEu2diIsI6YDJeZ-13" target="25Im-zEu2diIsI6YDJeZ-8">
          <mxGeometry relative="1" as="geometry" />
        </mxCell>
        <mxCell id="25Im-zEu2diIsI6YDJeZ-13" value="" style="rounded=0;whiteSpace=wrap;html=1;" vertex="1" parent="1">
          <mxGeometry x="1710" y="580" width="30" height="60" as="geometry" />
        </mxCell>
        <mxCell id="25Im-zEu2diIsI6YDJeZ-18" style="edgeStyle=orthogonalEdgeStyle;rounded=0;orthogonalLoop=1;jettySize=auto;html=1;exitX=0.5;exitY=0;exitDx=0;exitDy=0;entryX=0.5;entryY=1;entryDx=0;entryDy=0;endArrow=none;endFill=0;" edge="1" parent="1" source="25Im-zEu2diIsI6YDJeZ-14" target="25Im-zEu2diIsI6YDJeZ-10">
          <mxGeometry relative="1" as="geometry" />
        </mxCell>
        <mxCell id="25Im-zEu2diIsI6YDJeZ-14" value="" style="rounded=0;whiteSpace=wrap;html=1;" vertex="1" parent="1">
          <mxGeometry x="1830" y="580" width="30" height="60" as="geometry" />
        </mxCell>
        <mxCell id="25Im-zEu2diIsI6YDJeZ-20" style="edgeStyle=orthogonalEdgeStyle;rounded=0;orthogonalLoop=1;jettySize=auto;html=1;exitX=0.5;exitY=0;exitDx=0;exitDy=0;entryX=0.044;entryY=0.708;entryDx=0;entryDy=0;entryPerimeter=0;endArrow=none;endFill=0;" edge="1" parent="1" source="25Im-zEu2diIsI6YDJeZ-4" target="25Im-zEu2diIsI6YDJeZ-1">
          <mxGeometry relative="1" as="geometry" />
        </mxCell>
        <mxCell id="25Im-zEu2diIsI6YDJeZ-61" style="edgeStyle=orthogonalEdgeStyle;rounded=0;orthogonalLoop=1;jettySize=auto;html=1;exitX=0.5;exitY=0;exitDx=0;exitDy=0;entryX=1;entryY=1;entryDx=0;entryDy=0;endArrow=none;endFill=0;" edge="1" parent="1" source="25Im-zEu2diIsI6YDJeZ-26" target="6X2EwsW6MGB6UTKuVCd1-3">
          <mxGeometry relative="1" as="geometry">
            <Array as="points">
              <mxPoint x="2190" y="180" />
              <mxPoint x="889" y="180" />
            </Array>
          </mxGeometry>
        </mxCell>
        <mxCell id="25Im-zEu2diIsI6YDJeZ-26" value="" style="ellipse;whiteSpace=wrap;html=1;" vertex="1" parent="1">
          <mxGeometry x="2130" y="330" width="120" height="80" as="geometry" />
        </mxCell>
        <mxCell id="25Im-zEu2diIsI6YDJeZ-28" value="RENDELÉS" style="ellipse;whiteSpace=wrap;html=1;" vertex="1" parent="1">
          <mxGeometry x="2135" y="335" width="110" height="70" as="geometry" />
        </mxCell>
        <mxCell id="25Im-zEu2diIsI6YDJeZ-60" style="edgeStyle=orthogonalEdgeStyle;rounded=0;orthogonalLoop=1;jettySize=auto;html=1;exitX=1;exitY=0.5;exitDx=0;exitDy=0;entryX=0;entryY=0.5;entryDx=0;entryDy=0;endArrow=none;endFill=0;" edge="1" parent="1" source="25Im-zEu2diIsI6YDJeZ-29" target="25Im-zEu2diIsI6YDJeZ-26">
          <mxGeometry relative="1" as="geometry" />
        </mxCell>
        <mxCell id="25Im-zEu2diIsI6YDJeZ-29" value="&lt;u&gt;rendeles_id&lt;/u&gt;" style="rhombus;whiteSpace=wrap;html=1;" vertex="1" parent="1">
          <mxGeometry x="2010" y="330" width="80" height="80" as="geometry" />
        </mxCell>
        <mxCell id="25Im-zEu2diIsI6YDJeZ-30" value="rendelés_ideje" style="ellipse;whiteSpace=wrap;html=1;" vertex="1" parent="1">
          <mxGeometry x="2010" y="470" width="90" height="60" as="geometry" />
        </mxCell>
        <mxCell id="25Im-zEu2diIsI6YDJeZ-58" style="edgeStyle=orthogonalEdgeStyle;rounded=0;orthogonalLoop=1;jettySize=auto;html=1;exitX=0.5;exitY=0;exitDx=0;exitDy=0;entryX=0.5;entryY=1;entryDx=0;entryDy=0;endArrow=none;endFill=0;" edge="1" parent="1" source="25Im-zEu2diIsI6YDJeZ-31" target="25Im-zEu2diIsI6YDJeZ-26">
          <mxGeometry relative="1" as="geometry" />
        </mxCell>
        <mxCell id="25Im-zEu2diIsI6YDJeZ-31" value="státusz" style="ellipse;whiteSpace=wrap;html=1;" vertex="1" parent="1">
          <mxGeometry x="2135" y="467.5" width="90" height="60" as="geometry" />
        </mxCell>
        <mxCell id="25Im-zEu2diIsI6YDJeZ-57" style="edgeStyle=orthogonalEdgeStyle;rounded=0;orthogonalLoop=1;jettySize=auto;html=1;exitX=0.5;exitY=0;exitDx=0;exitDy=0;entryX=1;entryY=1;entryDx=0;entryDy=0;endArrow=none;endFill=0;" edge="1" parent="1" source="25Im-zEu2diIsI6YDJeZ-32" target="25Im-zEu2diIsI6YDJeZ-26">
          <mxGeometry relative="1" as="geometry">
            <mxPoint x="2260" y="400" as="targetPoint" />
          </mxGeometry>
        </mxCell>
        <mxCell id="25Im-zEu2diIsI6YDJeZ-32" value="szállitási_cim" style="ellipse;whiteSpace=wrap;html=1;" vertex="1" parent="1">
          <mxGeometry x="2270" y="467.5" width="90" height="60" as="geometry" />
        </mxCell>
        <mxCell id="25Im-zEu2diIsI6YDJeZ-33" value="irsz" style="ellipse;whiteSpace=wrap;html=1;" vertex="1" parent="1">
          <mxGeometry x="2190" y="580" width="90" height="60" as="geometry" />
        </mxCell>
        <mxCell id="25Im-zEu2diIsI6YDJeZ-34" value="város" style="ellipse;whiteSpace=wrap;html=1;" vertex="1" parent="1">
          <mxGeometry x="2290" y="580" width="90" height="60" as="geometry" />
        </mxCell>
        <mxCell id="25Im-zEu2diIsI6YDJeZ-53" style="edgeStyle=orthogonalEdgeStyle;rounded=0;orthogonalLoop=1;jettySize=auto;html=1;exitX=0.5;exitY=0;exitDx=0;exitDy=0;entryX=1;entryY=1;entryDx=0;entryDy=0;endArrow=none;endFill=0;" edge="1" parent="1" source="25Im-zEu2diIsI6YDJeZ-35" target="25Im-zEu2diIsI6YDJeZ-32">
          <mxGeometry relative="1" as="geometry" />
        </mxCell>
        <mxCell id="25Im-zEu2diIsI6YDJeZ-35" value="utca" style="ellipse;whiteSpace=wrap;html=1;" vertex="1" parent="1">
          <mxGeometry x="2390" y="580" width="90" height="60" as="geometry" />
        </mxCell>
        <mxCell id="25Im-zEu2diIsI6YDJeZ-54" style="edgeStyle=orthogonalEdgeStyle;rounded=0;orthogonalLoop=1;jettySize=auto;html=1;exitX=0.5;exitY=0;exitDx=0;exitDy=0;entryX=1;entryY=0.5;entryDx=0;entryDy=0;endArrow=none;endFill=0;" edge="1" parent="1" source="25Im-zEu2diIsI6YDJeZ-36" target="25Im-zEu2diIsI6YDJeZ-32">
          <mxGeometry relative="1" as="geometry" />
        </mxCell>
        <mxCell id="25Im-zEu2diIsI6YDJeZ-36" value="hsz" style="ellipse;whiteSpace=wrap;html=1;" vertex="1" parent="1">
          <mxGeometry x="2490" y="580" width="90" height="60" as="geometry" />
        </mxCell>
        <mxCell id="25Im-zEu2diIsI6YDJeZ-56" style="edgeStyle=orthogonalEdgeStyle;rounded=0;orthogonalLoop=1;jettySize=auto;html=1;exitX=0.5;exitY=0;exitDx=0;exitDy=0;endArrow=none;endFill=0;entryX=0.955;entryY=0.786;entryDx=0;entryDy=0;entryPerimeter=0;" edge="1" parent="1" source="25Im-zEu2diIsI6YDJeZ-37" target="25Im-zEu2diIsI6YDJeZ-28">
          <mxGeometry relative="1" as="geometry">
            <mxPoint x="2250" y="390" as="targetPoint" />
            <Array as="points">
              <mxPoint x="2605" y="430" />
              <mxPoint x="2250" y="430" />
              <mxPoint x="2250" y="390" />
            </Array>
          </mxGeometry>
        </mxCell>
        <mxCell id="25Im-zEu2diIsI6YDJeZ-37" value="végösszeg" style="ellipse;whiteSpace=wrap;html=1;" vertex="1" parent="1">
          <mxGeometry x="2560" y="467.5" width="90" height="60" as="geometry" />
        </mxCell>
        <mxCell id="25Im-zEu2diIsI6YDJeZ-50" style="edgeStyle=orthogonalEdgeStyle;rounded=0;orthogonalLoop=1;jettySize=auto;html=1;exitX=0.5;exitY=0;exitDx=0;exitDy=0;entryX=0.5;entryY=1;entryDx=0;entryDy=0;endArrow=none;endFill=0;" edge="1" parent="1" source="25Im-zEu2diIsI6YDJeZ-38" target="25Im-zEu2diIsI6YDJeZ-30">
          <mxGeometry relative="1" as="geometry" />
        </mxCell>
        <mxCell id="25Im-zEu2diIsI6YDJeZ-38" value="" style="rounded=0;whiteSpace=wrap;html=1;" vertex="1" parent="1">
          <mxGeometry x="2035" y="580" width="30" height="60" as="geometry" />
        </mxCell>
        <mxCell id="25Im-zEu2diIsI6YDJeZ-49" style="edgeStyle=orthogonalEdgeStyle;rounded=0;orthogonalLoop=1;jettySize=auto;html=1;exitX=0.5;exitY=0;exitDx=0;exitDy=0;entryX=0.5;entryY=1;entryDx=0;entryDy=0;endArrow=none;endFill=0;" edge="1" parent="1" source="25Im-zEu2diIsI6YDJeZ-39" target="25Im-zEu2diIsI6YDJeZ-31">
          <mxGeometry relative="1" as="geometry" />
        </mxCell>
        <mxCell id="25Im-zEu2diIsI6YDJeZ-39" value="" style="rounded=0;whiteSpace=wrap;html=1;" vertex="1" parent="1">
          <mxGeometry x="2140" y="580" width="30" height="60" as="geometry" />
        </mxCell>
        <mxCell id="25Im-zEu2diIsI6YDJeZ-117" style="edgeStyle=orthogonalEdgeStyle;rounded=0;orthogonalLoop=1;jettySize=auto;html=1;exitX=0.5;exitY=0;exitDx=0;exitDy=0;entryX=0.5;entryY=1;entryDx=0;entryDy=0;endArrow=none;endFill=0;" edge="1" parent="1" source="25Im-zEu2diIsI6YDJeZ-40" target="25Im-zEu2diIsI6YDJeZ-37">
          <mxGeometry relative="1" as="geometry" />
        </mxCell>
        <mxCell id="25Im-zEu2diIsI6YDJeZ-40" value="" style="rounded=0;whiteSpace=wrap;html=1;" vertex="1" parent="1">
          <mxGeometry x="2590" y="580" width="30" height="60" as="geometry" />
        </mxCell>
        <mxCell id="25Im-zEu2diIsI6YDJeZ-48" style="edgeStyle=orthogonalEdgeStyle;rounded=0;orthogonalLoop=1;jettySize=auto;html=1;exitX=0.5;exitY=0;exitDx=0;exitDy=0;entryX=0.5;entryY=1;entryDx=0;entryDy=0;endArrow=none;endFill=0;" edge="1" parent="1" source="25Im-zEu2diIsI6YDJeZ-41" target="25Im-zEu2diIsI6YDJeZ-33">
          <mxGeometry relative="1" as="geometry" />
        </mxCell>
        <mxCell id="25Im-zEu2diIsI6YDJeZ-41" value="" style="rounded=0;whiteSpace=wrap;html=1;" vertex="1" parent="1">
          <mxGeometry x="2220" y="680" width="30" height="60" as="geometry" />
        </mxCell>
        <mxCell id="25Im-zEu2diIsI6YDJeZ-47" style="edgeStyle=orthogonalEdgeStyle;rounded=0;orthogonalLoop=1;jettySize=auto;html=1;exitX=0.5;exitY=0;exitDx=0;exitDy=0;entryX=0.5;entryY=1;entryDx=0;entryDy=0;endArrow=none;endFill=0;" edge="1" parent="1" source="25Im-zEu2diIsI6YDJeZ-42" target="25Im-zEu2diIsI6YDJeZ-34">
          <mxGeometry relative="1" as="geometry" />
        </mxCell>
        <mxCell id="25Im-zEu2diIsI6YDJeZ-42" value="" style="rounded=0;whiteSpace=wrap;html=1;" vertex="1" parent="1">
          <mxGeometry x="2320" y="680" width="30" height="60" as="geometry" />
        </mxCell>
        <mxCell id="25Im-zEu2diIsI6YDJeZ-46" style="edgeStyle=orthogonalEdgeStyle;rounded=0;orthogonalLoop=1;jettySize=auto;html=1;exitX=0.5;exitY=0;exitDx=0;exitDy=0;entryX=0.5;entryY=1;entryDx=0;entryDy=0;endArrow=none;endFill=0;" edge="1" parent="1" source="25Im-zEu2diIsI6YDJeZ-43" target="25Im-zEu2diIsI6YDJeZ-35">
          <mxGeometry relative="1" as="geometry" />
        </mxCell>
        <mxCell id="25Im-zEu2diIsI6YDJeZ-43" value="" style="rounded=0;whiteSpace=wrap;html=1;" vertex="1" parent="1">
          <mxGeometry x="2420" y="680" width="30" height="60" as="geometry" />
        </mxCell>
        <mxCell id="25Im-zEu2diIsI6YDJeZ-45" style="edgeStyle=orthogonalEdgeStyle;rounded=0;orthogonalLoop=1;jettySize=auto;html=1;exitX=0.5;exitY=0;exitDx=0;exitDy=0;entryX=0.5;entryY=1;entryDx=0;entryDy=0;endArrow=none;endFill=0;" edge="1" parent="1" source="25Im-zEu2diIsI6YDJeZ-44" target="25Im-zEu2diIsI6YDJeZ-36">
          <mxGeometry relative="1" as="geometry" />
        </mxCell>
        <mxCell id="25Im-zEu2diIsI6YDJeZ-44" value="" style="rounded=0;whiteSpace=wrap;html=1;" vertex="1" parent="1">
          <mxGeometry x="2520" y="680" width="30" height="60" as="geometry" />
        </mxCell>
        <mxCell id="25Im-zEu2diIsI6YDJeZ-51" style="edgeStyle=orthogonalEdgeStyle;rounded=0;orthogonalLoop=1;jettySize=auto;html=1;exitX=0.5;exitY=0;exitDx=0;exitDy=0;entryX=0.033;entryY=0.694;entryDx=0;entryDy=0;entryPerimeter=0;endArrow=none;endFill=0;" edge="1" parent="1" source="25Im-zEu2diIsI6YDJeZ-33" target="25Im-zEu2diIsI6YDJeZ-32">
          <mxGeometry relative="1" as="geometry" />
        </mxCell>
        <mxCell id="25Im-zEu2diIsI6YDJeZ-52" style="edgeStyle=orthogonalEdgeStyle;rounded=0;orthogonalLoop=1;jettySize=auto;html=1;exitX=0.5;exitY=0;exitDx=0;exitDy=0;entryX=0.276;entryY=0.896;entryDx=0;entryDy=0;entryPerimeter=0;endArrow=none;endFill=0;" edge="1" parent="1" source="25Im-zEu2diIsI6YDJeZ-34" target="25Im-zEu2diIsI6YDJeZ-32">
          <mxGeometry relative="1" as="geometry" />
        </mxCell>
        <mxCell id="25Im-zEu2diIsI6YDJeZ-59" style="edgeStyle=orthogonalEdgeStyle;rounded=0;orthogonalLoop=1;jettySize=auto;html=1;exitX=0.5;exitY=0;exitDx=0;exitDy=0;endArrow=none;endFill=0;entryX=0;entryY=1;entryDx=0;entryDy=0;" edge="1" parent="1" source="25Im-zEu2diIsI6YDJeZ-30" target="25Im-zEu2diIsI6YDJeZ-26">
          <mxGeometry relative="1" as="geometry">
            <mxPoint x="2160" y="410" as="targetPoint" />
          </mxGeometry>
        </mxCell>
        <mxCell id="25Im-zEu2diIsI6YDJeZ-62" value="" style="ellipse;whiteSpace=wrap;html=1;" vertex="1" parent="1">
          <mxGeometry x="3260" y="330" width="120" height="80" as="geometry" />
        </mxCell>
        <mxCell id="25Im-zEu2diIsI6YDJeZ-63" value="FUTÁR" style="ellipse;whiteSpace=wrap;html=1;" vertex="1" parent="1">
          <mxGeometry x="3265" y="335" width="110" height="70" as="geometry" />
        </mxCell>
        <mxCell id="25Im-zEu2diIsI6YDJeZ-80" style="edgeStyle=orthogonalEdgeStyle;rounded=0;orthogonalLoop=1;jettySize=auto;html=1;exitX=0.5;exitY=0;exitDx=0;exitDy=0;entryX=0;entryY=1;entryDx=0;entryDy=0;endArrow=none;endFill=0;" edge="1" parent="1" source="25Im-zEu2diIsI6YDJeZ-64" target="25Im-zEu2diIsI6YDJeZ-62">
          <mxGeometry relative="1" as="geometry" />
        </mxCell>
        <mxCell id="25Im-zEu2diIsI6YDJeZ-64" value="név" style="ellipse;whiteSpace=wrap;html=1;" vertex="1" parent="1">
          <mxGeometry x="3120" y="467.5" width="90" height="60" as="geometry" />
        </mxCell>
        <mxCell id="25Im-zEu2diIsI6YDJeZ-78" value="" style="edgeStyle=orthogonalEdgeStyle;rounded=0;orthogonalLoop=1;jettySize=auto;html=1;endArrow=none;endFill=0;" edge="1" parent="1" source="25Im-zEu2diIsI6YDJeZ-65" target="25Im-zEu2diIsI6YDJeZ-64">
          <mxGeometry relative="1" as="geometry" />
        </mxCell>
        <mxCell id="25Im-zEu2diIsI6YDJeZ-65" value="vezetéknév" style="ellipse;whiteSpace=wrap;html=1;" vertex="1" parent="1">
          <mxGeometry x="3060" y="580" width="90" height="60" as="geometry" />
        </mxCell>
        <mxCell id="25Im-zEu2diIsI6YDJeZ-79" style="edgeStyle=orthogonalEdgeStyle;rounded=0;orthogonalLoop=1;jettySize=auto;html=1;exitX=0.5;exitY=0;exitDx=0;exitDy=0;entryX=1;entryY=1;entryDx=0;entryDy=0;endArrow=none;endFill=0;" edge="1" parent="1" source="25Im-zEu2diIsI6YDJeZ-66" target="25Im-zEu2diIsI6YDJeZ-64">
          <mxGeometry relative="1" as="geometry" />
        </mxCell>
        <mxCell id="25Im-zEu2diIsI6YDJeZ-66" value="keresztnév" style="ellipse;whiteSpace=wrap;html=1;" vertex="1" parent="1">
          <mxGeometry x="3180" y="580" width="90" height="60" as="geometry" />
        </mxCell>
        <mxCell id="25Im-zEu2diIsI6YDJeZ-83" style="edgeStyle=orthogonalEdgeStyle;rounded=0;orthogonalLoop=1;jettySize=auto;html=1;exitX=0.5;exitY=0;exitDx=0;exitDy=0;entryX=0.5;entryY=1;entryDx=0;entryDy=0;endArrow=none;endFill=0;" edge="1" parent="1" source="25Im-zEu2diIsI6YDJeZ-67" target="25Im-zEu2diIsI6YDJeZ-62">
          <mxGeometry relative="1" as="geometry" />
        </mxCell>
        <mxCell id="25Im-zEu2diIsI6YDJeZ-67" value="telefonszám" style="ellipse;whiteSpace=wrap;html=1;" vertex="1" parent="1">
          <mxGeometry x="3285" y="467.5" width="90" height="60" as="geometry" />
        </mxCell>
        <mxCell id="25Im-zEu2diIsI6YDJeZ-68" value="jármű_rendszám" style="ellipse;whiteSpace=wrap;html=1;" vertex="1" parent="1">
          <mxGeometry x="3440" y="467.5" width="90" height="60" as="geometry" />
        </mxCell>
        <mxCell id="25Im-zEu2diIsI6YDJeZ-85" style="edgeStyle=orthogonalEdgeStyle;rounded=0;orthogonalLoop=1;jettySize=auto;html=1;exitX=0.5;exitY=0;exitDx=0;exitDy=0;entryX=1;entryY=0.5;entryDx=0;entryDy=0;endArrow=none;endFill=0;" edge="1" parent="1" source="25Im-zEu2diIsI6YDJeZ-69" target="25Im-zEu2diIsI6YDJeZ-62">
          <mxGeometry relative="1" as="geometry" />
        </mxCell>
        <mxCell id="25Im-zEu2diIsI6YDJeZ-69" value="értékelés" style="ellipse;whiteSpace=wrap;html=1;" vertex="1" parent="1">
          <mxGeometry x="3600" y="467.5" width="90" height="60" as="geometry" />
        </mxCell>
        <mxCell id="25Im-zEu2diIsI6YDJeZ-81" style="edgeStyle=orthogonalEdgeStyle;rounded=0;orthogonalLoop=1;jettySize=auto;html=1;exitX=0.5;exitY=0;exitDx=0;exitDy=0;entryX=0.5;entryY=1;entryDx=0;entryDy=0;endArrow=none;endFill=0;" edge="1" parent="1" source="25Im-zEu2diIsI6YDJeZ-70" target="25Im-zEu2diIsI6YDJeZ-67">
          <mxGeometry relative="1" as="geometry" />
        </mxCell>
        <mxCell id="25Im-zEu2diIsI6YDJeZ-70" value="" style="rounded=0;whiteSpace=wrap;html=1;" vertex="1" parent="1">
          <mxGeometry x="3315" y="580" width="30" height="60" as="geometry" />
        </mxCell>
        <mxCell id="25Im-zEu2diIsI6YDJeZ-87" style="edgeStyle=orthogonalEdgeStyle;rounded=0;orthogonalLoop=1;jettySize=auto;html=1;exitX=1;exitY=0.5;exitDx=0;exitDy=0;entryX=0;entryY=0.5;entryDx=0;entryDy=0;endArrow=none;endFill=0;" edge="1" parent="1" source="25Im-zEu2diIsI6YDJeZ-71" target="25Im-zEu2diIsI6YDJeZ-62">
          <mxGeometry relative="1" as="geometry" />
        </mxCell>
        <mxCell id="25Im-zEu2diIsI6YDJeZ-71" value="&lt;u&gt;futar_id&lt;/u&gt;" style="rhombus;whiteSpace=wrap;html=1;" vertex="1" parent="1">
          <mxGeometry x="3140" y="330" width="80" height="80" as="geometry" />
        </mxCell>
        <mxCell id="25Im-zEu2diIsI6YDJeZ-82" style="edgeStyle=orthogonalEdgeStyle;rounded=0;orthogonalLoop=1;jettySize=auto;html=1;exitX=0.5;exitY=0;exitDx=0;exitDy=0;entryX=0.5;entryY=1;entryDx=0;entryDy=0;endArrow=none;endFill=0;" edge="1" parent="1" source="25Im-zEu2diIsI6YDJeZ-72" target="25Im-zEu2diIsI6YDJeZ-68">
          <mxGeometry relative="1" as="geometry" />
        </mxCell>
        <mxCell id="25Im-zEu2diIsI6YDJeZ-72" value="" style="rounded=0;whiteSpace=wrap;html=1;" vertex="1" parent="1">
          <mxGeometry x="3470" y="580" width="30" height="60" as="geometry" />
        </mxCell>
        <mxCell id="25Im-zEu2diIsI6YDJeZ-86" style="edgeStyle=orthogonalEdgeStyle;rounded=0;orthogonalLoop=1;jettySize=auto;html=1;exitX=0.5;exitY=0;exitDx=0;exitDy=0;entryX=0.5;entryY=1;entryDx=0;entryDy=0;endArrow=none;endFill=0;" edge="1" parent="1" source="25Im-zEu2diIsI6YDJeZ-73" target="25Im-zEu2diIsI6YDJeZ-69">
          <mxGeometry relative="1" as="geometry" />
        </mxCell>
        <mxCell id="25Im-zEu2diIsI6YDJeZ-73" value="" style="rounded=0;whiteSpace=wrap;html=1;" vertex="1" parent="1">
          <mxGeometry x="3630" y="580" width="30" height="60" as="geometry" />
        </mxCell>
        <mxCell id="25Im-zEu2diIsI6YDJeZ-77" style="edgeStyle=orthogonalEdgeStyle;rounded=0;orthogonalLoop=1;jettySize=auto;html=1;exitX=0.5;exitY=0;exitDx=0;exitDy=0;entryX=0.5;entryY=1;entryDx=0;entryDy=0;endArrow=none;endFill=0;" edge="1" parent="1" source="25Im-zEu2diIsI6YDJeZ-74" target="25Im-zEu2diIsI6YDJeZ-65">
          <mxGeometry relative="1" as="geometry" />
        </mxCell>
        <mxCell id="25Im-zEu2diIsI6YDJeZ-74" value="" style="rounded=0;whiteSpace=wrap;html=1;" vertex="1" parent="1">
          <mxGeometry x="3090" y="680" width="30" height="60" as="geometry" />
        </mxCell>
        <mxCell id="25Im-zEu2diIsI6YDJeZ-76" style="edgeStyle=orthogonalEdgeStyle;rounded=0;orthogonalLoop=1;jettySize=auto;html=1;exitX=0.5;exitY=0;exitDx=0;exitDy=0;entryX=0.5;entryY=1;entryDx=0;entryDy=0;endArrow=none;endFill=0;" edge="1" parent="1" source="25Im-zEu2diIsI6YDJeZ-75" target="25Im-zEu2diIsI6YDJeZ-66">
          <mxGeometry relative="1" as="geometry" />
        </mxCell>
        <mxCell id="25Im-zEu2diIsI6YDJeZ-75" value="" style="rounded=0;whiteSpace=wrap;html=1;" vertex="1" parent="1">
          <mxGeometry x="3210" y="680" width="30" height="60" as="geometry" />
        </mxCell>
        <mxCell id="25Im-zEu2diIsI6YDJeZ-84" style="edgeStyle=orthogonalEdgeStyle;rounded=0;orthogonalLoop=1;jettySize=auto;html=1;exitX=0.5;exitY=0;exitDx=0;exitDy=0;entryX=0.727;entryY=0.997;entryDx=0;entryDy=0;entryPerimeter=0;endArrow=none;endFill=0;" edge="1" parent="1" source="25Im-zEu2diIsI6YDJeZ-68" target="25Im-zEu2diIsI6YDJeZ-62">
          <mxGeometry relative="1" as="geometry" />
        </mxCell>
        <mxCell id="25Im-zEu2diIsI6YDJeZ-122" style="edgeStyle=orthogonalEdgeStyle;rounded=0;orthogonalLoop=1;jettySize=auto;html=1;exitX=0.5;exitY=1;exitDx=0;exitDy=0;entryX=0.5;entryY=1;entryDx=0;entryDy=0;dashed=1;dashPattern=8 8;" edge="1" parent="1" source="25Im-zEu2diIsI6YDJeZ-92" target="6X2EwsW6MGB6UTKuVCd1-51">
          <mxGeometry relative="1" as="geometry">
            <Array as="points">
              <mxPoint x="1410" y="850" />
              <mxPoint x="660" y="850" />
              <mxPoint x="660" y="410" />
            </Array>
          </mxGeometry>
        </mxCell>
        <mxCell id="25Im-zEu2diIsI6YDJeZ-92" value="e_id" style="rhombus;whiteSpace=wrap;html=1;" vertex="1" parent="1">
          <mxGeometry x="1370" y="320" width="80" height="80" as="geometry" />
        </mxCell>
        <mxCell id="25Im-zEu2diIsI6YDJeZ-111" style="edgeStyle=orthogonalEdgeStyle;rounded=0;orthogonalLoop=1;jettySize=auto;html=1;exitX=0.5;exitY=1;exitDx=0;exitDy=0;entryX=0;entryY=0.5;entryDx=0;entryDy=0;dashed=1;dashPattern=8 8;" edge="1" parent="1" source="25Im-zEu2diIsI6YDJeZ-94" target="6X2EwsW6MGB6UTKuVCd1-6">
          <mxGeometry relative="1" as="geometry">
            <mxPoint x="560" y="440" as="targetPoint" />
            <Array as="points">
              <mxPoint x="2910" y="1070" />
              <mxPoint x="-590" y="1070" />
              <mxPoint x="-590" y="370" />
            </Array>
          </mxGeometry>
        </mxCell>
        <mxCell id="25Im-zEu2diIsI6YDJeZ-94" value="V_ID" style="rhombus;whiteSpace=wrap;html=1;" vertex="1" parent="1">
          <mxGeometry x="2870" y="322.5" width="80" height="80" as="geometry" />
        </mxCell>
        <mxCell id="25Im-zEu2diIsI6YDJeZ-113" style="edgeStyle=orthogonalEdgeStyle;rounded=0;orthogonalLoop=1;jettySize=auto;html=1;exitX=0.5;exitY=0;exitDx=0;exitDy=0;entryX=1;entryY=0;entryDx=0;entryDy=0;endArrow=none;endFill=0;" edge="1" parent="1" source="25Im-zEu2diIsI6YDJeZ-95" target="25Im-zEu2diIsI6YDJeZ-28">
          <mxGeometry relative="1" as="geometry">
            <Array as="points">
              <mxPoint x="2230" y="320" />
              <mxPoint x="2230" y="345" />
            </Array>
          </mxGeometry>
        </mxCell>
        <mxCell id="25Im-zEu2diIsI6YDJeZ-115" style="edgeStyle=orthogonalEdgeStyle;rounded=0;orthogonalLoop=1;jettySize=auto;html=1;exitX=0.5;exitY=1;exitDx=0;exitDy=0;entryX=0;entryY=0.5;entryDx=0;entryDy=0;dashed=1;dashPattern=8 8;" edge="1" parent="1" source="25Im-zEu2diIsI6YDJeZ-95" target="6X2EwsW6MGB6UTKuVCd1-51">
          <mxGeometry relative="1" as="geometry">
            <Array as="points">
              <mxPoint x="2820" y="910" />
              <mxPoint x="620" y="910" />
              <mxPoint x="620" y="370" />
            </Array>
          </mxGeometry>
        </mxCell>
        <mxCell id="25Im-zEu2diIsI6YDJeZ-95" value="E_ID" style="rhombus;whiteSpace=wrap;html=1;" vertex="1" parent="1">
          <mxGeometry x="2780" y="320" width="80" height="80" as="geometry" />
        </mxCell>
        <mxCell id="25Im-zEu2diIsI6YDJeZ-116" style="edgeStyle=orthogonalEdgeStyle;rounded=0;orthogonalLoop=1;jettySize=auto;html=1;exitX=1;exitY=0.5;exitDx=0;exitDy=0;entryX=0;entryY=0.5;entryDx=0;entryDy=0;dashed=1;dashPattern=8 8;" edge="1" parent="1" source="25Im-zEu2diIsI6YDJeZ-96" target="25Im-zEu2diIsI6YDJeZ-71">
          <mxGeometry relative="1" as="geometry" />
        </mxCell>
        <mxCell id="25Im-zEu2diIsI6YDJeZ-118" style="edgeStyle=orthogonalEdgeStyle;rounded=0;orthogonalLoop=1;jettySize=auto;html=1;exitX=0.5;exitY=0;exitDx=0;exitDy=0;endArrow=none;endFill=0;" edge="1" parent="1" source="25Im-zEu2diIsI6YDJeZ-96">
          <mxGeometry relative="1" as="geometry">
            <mxPoint x="2200" y="330" as="targetPoint" />
            <Array as="points">
              <mxPoint x="3010" y="270" />
              <mxPoint x="2200" y="270" />
              <mxPoint x="2200" y="330" />
            </Array>
          </mxGeometry>
        </mxCell>
        <mxCell id="25Im-zEu2diIsI6YDJeZ-96" value="F_ID" style="rhombus;whiteSpace=wrap;html=1;" vertex="1" parent="1">
          <mxGeometry x="2970" y="325" width="80" height="80" as="geometry" />
        </mxCell>
        <mxCell id="25Im-zEu2diIsI6YDJeZ-119" style="edgeStyle=orthogonalEdgeStyle;rounded=0;orthogonalLoop=1;jettySize=auto;html=1;exitX=0;exitY=0.5;exitDx=0;exitDy=0;endArrow=none;endFill=0;" edge="1" parent="1" source="25Im-zEu2diIsI6YDJeZ-97">
          <mxGeometry relative="1" as="geometry">
            <mxPoint x="2247.2723388671875" y="369.5" as="targetPoint" />
          </mxGeometry>
        </mxCell>
        <mxCell id="25Im-zEu2diIsI6YDJeZ-97" value="tartalmaz" style="rhombus;whiteSpace=wrap;html=1;" vertex="1" parent="1">
          <mxGeometry x="2680" y="330" width="80" height="80" as="geometry" />
        </mxCell>
        <mxCell id="25Im-zEu2diIsI6YDJeZ-102" style="edgeStyle=orthogonalEdgeStyle;rounded=0;orthogonalLoop=1;jettySize=auto;html=1;exitX=0.5;exitY=0;exitDx=0;exitDy=0;entryX=0;entryY=1;entryDx=0;entryDy=0;endArrow=none;endFill=0;" edge="1" parent="1" source="25Im-zEu2diIsI6YDJeZ-99" target="25Im-zEu2diIsI6YDJeZ-97">
          <mxGeometry relative="1" as="geometry" />
        </mxCell>
        <mxCell id="25Im-zEu2diIsI6YDJeZ-120" style="edgeStyle=orthogonalEdgeStyle;rounded=0;orthogonalLoop=1;jettySize=auto;html=1;exitX=0.5;exitY=1;exitDx=0;exitDy=0;entryX=0.5;entryY=1;entryDx=0;entryDy=0;dashed=1;dashPattern=8 8;" edge="1" parent="1" source="25Im-zEu2diIsI6YDJeZ-99" target="25Im-zEu2diIsI6YDJeZ-3">
          <mxGeometry relative="1" as="geometry">
            <Array as="points">
              <mxPoint x="2665" y="850" />
              <mxPoint x="1930" y="850" />
            </Array>
          </mxGeometry>
        </mxCell>
        <mxCell id="25Im-zEu2diIsI6YDJeZ-99" value="ET_ID" style="rhombus;whiteSpace=wrap;html=1;" vertex="1" parent="1">
          <mxGeometry x="2640" y="427.5" width="50" height="50" as="geometry" />
        </mxCell>
        <mxCell id="25Im-zEu2diIsI6YDJeZ-103" style="edgeStyle=orthogonalEdgeStyle;rounded=0;orthogonalLoop=1;jettySize=auto;html=1;exitX=0.5;exitY=0;exitDx=0;exitDy=0;entryX=0.5;entryY=1;entryDx=0;entryDy=0;endArrow=none;endFill=0;" edge="1" parent="1" source="25Im-zEu2diIsI6YDJeZ-100" target="25Im-zEu2diIsI6YDJeZ-97">
          <mxGeometry relative="1" as="geometry" />
        </mxCell>
        <mxCell id="25Im-zEu2diIsI6YDJeZ-100" value="DBSzam" style="ellipse;whiteSpace=wrap;html=1;" vertex="1" parent="1">
          <mxGeometry x="2695" y="432.5" width="50" height="40" as="geometry" />
        </mxCell>
        <mxCell id="25Im-zEu2diIsI6YDJeZ-104" style="edgeStyle=orthogonalEdgeStyle;rounded=0;orthogonalLoop=1;jettySize=auto;html=1;exitX=0.5;exitY=0;exitDx=0;exitDy=0;entryX=1;entryY=1;entryDx=0;entryDy=0;endArrow=none;endFill=0;" edge="1" parent="1" source="25Im-zEu2diIsI6YDJeZ-101" target="25Im-zEu2diIsI6YDJeZ-97">
          <mxGeometry relative="1" as="geometry" />
        </mxCell>
        <mxCell id="25Im-zEu2diIsI6YDJeZ-101" value="vásárláskori ár" style="ellipse;whiteSpace=wrap;html=1;" vertex="1" parent="1">
          <mxGeometry x="2750" y="432.5" width="60" height="40" as="geometry" />
        </mxCell>
        <mxCell id="25Im-zEu2diIsI6YDJeZ-108" style="edgeStyle=orthogonalEdgeStyle;rounded=0;orthogonalLoop=1;jettySize=auto;html=1;exitX=0.5;exitY=0;exitDx=0;exitDy=0;endArrow=none;endFill=0;" edge="1" parent="1" source="25Im-zEu2diIsI6YDJeZ-106" target="25Im-zEu2diIsI6YDJeZ-100">
          <mxGeometry relative="1" as="geometry" />
        </mxCell>
        <mxCell id="25Im-zEu2diIsI6YDJeZ-106" value="" style="rounded=0;whiteSpace=wrap;html=1;" vertex="1" parent="1">
          <mxGeometry x="2705" y="500" width="30" height="60" as="geometry" />
        </mxCell>
        <mxCell id="25Im-zEu2diIsI6YDJeZ-109" style="edgeStyle=orthogonalEdgeStyle;rounded=0;orthogonalLoop=1;jettySize=auto;html=1;exitX=0.5;exitY=0;exitDx=0;exitDy=0;entryX=0.5;entryY=1;entryDx=0;entryDy=0;endArrow=none;endFill=0;" edge="1" parent="1" source="25Im-zEu2diIsI6YDJeZ-107" target="25Im-zEu2diIsI6YDJeZ-101">
          <mxGeometry relative="1" as="geometry" />
        </mxCell>
        <mxCell id="25Im-zEu2diIsI6YDJeZ-107" value="" style="rounded=0;whiteSpace=wrap;html=1;" vertex="1" parent="1">
          <mxGeometry x="2765" y="500" width="30" height="60" as="geometry" />
        </mxCell>
        <mxCell id="25Im-zEu2diIsI6YDJeZ-110" style="edgeStyle=orthogonalEdgeStyle;rounded=0;orthogonalLoop=1;jettySize=auto;html=1;exitX=0.5;exitY=0;exitDx=0;exitDy=0;entryX=0.664;entryY=-0.003;entryDx=0;entryDy=0;entryPerimeter=0;endArrow=none;endFill=0;" edge="1" parent="1" source="25Im-zEu2diIsI6YDJeZ-94" target="25Im-zEu2diIsI6YDJeZ-26">
          <mxGeometry relative="1" as="geometry" />
        </mxCell>
      </root>
    </mxGraphModel>
  </diagram>
</mxfile>
